<svg id="Layer_1" height="512" viewBox="0 0 512 512" width="512" xmlns="http://www.w3.org/2000/svg" data-name="Layer 1"><path d="m256 502a246 246 0 0 0 173.949-419.948 246 246 0 1 0 -347.9 347.9 244.386 244.386 0 0 0 173.951 72.048zm-165.463-411.463a234 234 0 0 1 330.926 330.926 234 234 0 0 1 -330.926-330.926z"/><path d="m256 453.557a197.557 197.557 0 0 0 139.694-337.251 197.557 197.557 0 0 0 -279.388 279.388 196.266 196.266 0 0 0 139.694 57.863zm-131.209-328.766a185.557 185.557 0 1 1 262.417 262.418c-72.348 72.348-190.068 72.348-262.417 0a185.559 185.559 0 0 1 0-262.418z"/><path d="m276.862 351.822a6 6 0 1 0 8.335-8.632l-65.843-63.571 15.915.17h.572a52.56 52.56 0 0 0 52.059-45.922l25.209.27h.066a6 6 0 0 0 .063-12l-25.206-.27a52.077 52.077 0 0 0 -14.692-31.267q-1.765-1.8-3.674-3.412l43.937.471h.065a6 6 0 0 0 .063-12l-77.336-.829-31-.333h-.066a6 6 0 0 0 -.063 12l31 .333a40.5 40.5 0 0 1 39.674 34.912l-71.044-.762a6 6 0 0 0 -.128 12l71.036.762a40.549 40.549 0 0 1 -39.965 34.056h-.441l-31-.332h-.065a6 6 0 0 0 -4.167 10.316z"/></svg>